<mxfile host="app.diagrams.net" modified="2022-02-22T09:13:04.711Z" agent="5.0 (Windows NT 10.0; Win64; x64) AppleWebKit/537.36 (KHTML, like Gecko) Chrome/98.0.4758.82 Safari/537.36" etag="DocOgB-UuvK3YlC-JnoY" version="16.5.3" type="github">
  <diagram id="oQeZkwXzfm3SIni4WCjP" name="Page-1">
    <mxGraphModel dx="1727" dy="2082" grid="1" gridSize="10" guides="1" tooltips="1" connect="1" arrows="1" fold="1" page="1" pageScale="1" pageWidth="827" pageHeight="1169" math="0" shadow="0">
      <root>
        <mxCell id="0" />
        <mxCell id="1" parent="0" />
        <mxCell id="3fbxxqJMh8eJSi5g2v8n-16" style="edgeStyle=orthogonalEdgeStyle;rounded=0;orthogonalLoop=1;jettySize=auto;html=1;exitX=0.5;exitY=1;exitDx=0;exitDy=0;entryX=0.5;entryY=0;entryDx=0;entryDy=0;fontSize=11;" parent="1" source="8YuRQceYXNouaps_eJ_H-1" target="3fbxxqJMh8eJSi5g2v8n-14" edge="1">
          <mxGeometry relative="1" as="geometry" />
        </mxCell>
        <mxCell id="8YuRQceYXNouaps_eJ_H-1" value="Johdanto" style="rounded=0;whiteSpace=wrap;html=1;" parent="1" vertex="1">
          <mxGeometry x="80" y="20" width="120" height="60" as="geometry" />
        </mxCell>
        <mxCell id="3fbxxqJMh8eJSi5g2v8n-32" style="edgeStyle=orthogonalEdgeStyle;rounded=0;orthogonalLoop=1;jettySize=auto;html=1;exitX=0.5;exitY=1;exitDx=0;exitDy=0;entryX=0.5;entryY=0;entryDx=0;entryDy=0;fontSize=8;" parent="1" source="8YuRQceYXNouaps_eJ_H-2" target="3fbxxqJMh8eJSi5g2v8n-31" edge="1">
          <mxGeometry relative="1" as="geometry" />
        </mxCell>
        <mxCell id="8YuRQceYXNouaps_eJ_H-2" value="Toimintalogiikan rakentaminen" style="rounded=0;whiteSpace=wrap;html=1;" parent="1" vertex="1">
          <mxGeometry x="80" y="420" width="120" height="60" as="geometry" />
        </mxCell>
        <mxCell id="3fbxxqJMh8eJSi5g2v8n-29" style="edgeStyle=orthogonalEdgeStyle;rounded=0;orthogonalLoop=1;jettySize=auto;html=1;exitX=0.5;exitY=1;exitDx=0;exitDy=0;entryX=0.5;entryY=0;entryDx=0;entryDy=0;fontSize=8;" parent="1" source="8YuRQceYXNouaps_eJ_H-3" target="8YuRQceYXNouaps_eJ_H-2" edge="1">
          <mxGeometry relative="1" as="geometry" />
        </mxCell>
        <mxCell id="8YuRQceYXNouaps_eJ_H-3" value="Komponentit" style="whiteSpace=wrap;html=1;" parent="1" vertex="1">
          <mxGeometry x="80" y="340" width="120" height="60" as="geometry" />
        </mxCell>
        <mxCell id="3fbxxqJMh8eJSi5g2v8n-7" style="edgeStyle=orthogonalEdgeStyle;rounded=0;orthogonalLoop=1;jettySize=auto;html=1;exitX=0.5;exitY=1;exitDx=0;exitDy=0;fontSize=12;entryX=0.5;entryY=0;entryDx=0;entryDy=0;" parent="1" source="8YuRQceYXNouaps_eJ_H-4" target="3fbxxqJMh8eJSi5g2v8n-6" edge="1">
          <mxGeometry relative="1" as="geometry">
            <mxPoint x="140" y="260" as="targetPoint" />
          </mxGeometry>
        </mxCell>
        <mxCell id="8YuRQceYXNouaps_eJ_H-4" value="Aikaisempien kehitelmien toimintalogiikoiden tutkiminen" style="whiteSpace=wrap;html=1;" parent="1" vertex="1">
          <mxGeometry x="80" y="180" width="120" height="60" as="geometry" />
        </mxCell>
        <mxCell id="3fbxxqJMh8eJSi5g2v8n-5" style="edgeStyle=orthogonalEdgeStyle;rounded=0;orthogonalLoop=1;jettySize=auto;html=1;exitX=0;exitY=0.5;exitDx=0;exitDy=0;entryX=1;entryY=0.5;entryDx=0;entryDy=0;fontSize=12;" parent="1" source="8YuRQceYXNouaps_eJ_H-6" target="8YuRQceYXNouaps_eJ_H-1" edge="1">
          <mxGeometry relative="1" as="geometry" />
        </mxCell>
        <mxCell id="8YuRQceYXNouaps_eJ_H-6" value="Tarve(?)" style="rounded=1;whiteSpace=wrap;html=1;" parent="1" vertex="1">
          <mxGeometry x="240" y="20" width="120" height="60" as="geometry" />
        </mxCell>
        <mxCell id="8YuRQceYXNouaps_eJ_H-19" style="edgeStyle=orthogonalEdgeStyle;rounded=0;orthogonalLoop=1;jettySize=auto;html=1;exitX=0;exitY=0.5;exitDx=0;exitDy=0;entryX=1;entryY=0.5;entryDx=0;entryDy=0;" parent="1" source="8YuRQceYXNouaps_eJ_H-12" target="8YuRQceYXNouaps_eJ_H-4" edge="1">
          <mxGeometry relative="1" as="geometry" />
        </mxCell>
        <mxCell id="8YuRQceYXNouaps_eJ_H-12" value="&lt;font style=&quot;font-size: 10px&quot;&gt;Robotti-imureiden toimintalogiikka&lt;/font&gt;" style="rounded=1;whiteSpace=wrap;html=1;" parent="1" vertex="1">
          <mxGeometry x="230" y="180" width="120" height="60" as="geometry" />
        </mxCell>
        <mxCell id="8YuRQceYXNouaps_eJ_H-18" style="edgeStyle=orthogonalEdgeStyle;rounded=0;orthogonalLoop=1;jettySize=auto;html=1;exitX=0;exitY=0.5;exitDx=0;exitDy=0;entryX=1;entryY=0.5;entryDx=0;entryDy=0;" parent="1" source="8YuRQceYXNouaps_eJ_H-14" target="8YuRQceYXNouaps_eJ_H-2" edge="1">
          <mxGeometry relative="1" as="geometry" />
        </mxCell>
        <mxCell id="8YuRQceYXNouaps_eJ_H-14" value="Minkälainen toimintalogiikka kehitettiin" style="rounded=1;whiteSpace=wrap;html=1;" parent="1" vertex="1">
          <mxGeometry x="230" y="420" width="120" height="60" as="geometry" />
        </mxCell>
        <mxCell id="8YuRQceYXNouaps_eJ_H-17" style="edgeStyle=orthogonalEdgeStyle;rounded=0;orthogonalLoop=1;jettySize=auto;html=1;exitX=0;exitY=0.5;exitDx=0;exitDy=0;entryX=1;entryY=0.5;entryDx=0;entryDy=0;" parent="1" source="8YuRQceYXNouaps_eJ_H-16" target="8YuRQceYXNouaps_eJ_H-3" edge="1">
          <mxGeometry relative="1" as="geometry" />
        </mxCell>
        <mxCell id="8YuRQceYXNouaps_eJ_H-16" value="Renkaiden ohjaus: Keskeisimmät komponentit" style="rounded=1;whiteSpace=wrap;html=1;" parent="1" vertex="1">
          <mxGeometry x="230" y="340" width="120" height="60" as="geometry" />
        </mxCell>
        <mxCell id="8YuRQceYXNouaps_eJ_H-22" value="Lopputulema" style="rounded=0;whiteSpace=wrap;html=1;" parent="1" vertex="1">
          <mxGeometry x="80" y="580" width="120" height="60" as="geometry" />
        </mxCell>
        <mxCell id="3fbxxqJMh8eJSi5g2v8n-2" style="edgeStyle=orthogonalEdgeStyle;rounded=0;orthogonalLoop=1;jettySize=auto;html=1;exitX=0;exitY=0.5;exitDx=0;exitDy=0;entryX=1;entryY=0.5;entryDx=0;entryDy=0;" parent="1" source="3fbxxqJMh8eJSi5g2v8n-1" target="8YuRQceYXNouaps_eJ_H-12" edge="1">
          <mxGeometry relative="1" as="geometry" />
        </mxCell>
        <mxCell id="3fbxxqJMh8eJSi5g2v8n-1" value="&lt;div&gt;&lt;span&gt;&lt;font style=&quot;font-size: 10px&quot;&gt;Robottiruohonleikkureiden toimintalogiikka&lt;/font&gt;&lt;/span&gt;&lt;/div&gt;" style="rounded=1;whiteSpace=wrap;html=1;align=center;" parent="1" vertex="1">
          <mxGeometry x="380" y="180" width="120" height="60" as="geometry" />
        </mxCell>
        <mxCell id="3fbxxqJMh8eJSi5g2v8n-4" style="edgeStyle=orthogonalEdgeStyle;rounded=0;orthogonalLoop=1;jettySize=auto;html=1;exitX=0;exitY=0.5;exitDx=0;exitDy=0;entryX=1;entryY=0.5;entryDx=0;entryDy=0;fontSize=10;" parent="1" source="3fbxxqJMh8eJSi5g2v8n-3" target="8YuRQceYXNouaps_eJ_H-16" edge="1">
          <mxGeometry relative="1" as="geometry" />
        </mxCell>
        <mxCell id="3fbxxqJMh8eJSi5g2v8n-3" value="&lt;font style=&quot;font-size: 12px&quot;&gt;Harjojen ohjaus: Keskeisimmät komponentit&lt;/font&gt;" style="rounded=1;whiteSpace=wrap;html=1;fontSize=10;" parent="1" vertex="1">
          <mxGeometry x="380" y="340" width="120" height="60" as="geometry" />
        </mxCell>
        <mxCell id="3fbxxqJMh8eJSi5g2v8n-28" style="edgeStyle=orthogonalEdgeStyle;rounded=0;orthogonalLoop=1;jettySize=auto;html=1;exitX=0.5;exitY=1;exitDx=0;exitDy=0;entryX=0.5;entryY=0;entryDx=0;entryDy=0;fontSize=8;" parent="1" source="3fbxxqJMh8eJSi5g2v8n-6" target="8YuRQceYXNouaps_eJ_H-3" edge="1">
          <mxGeometry relative="1" as="geometry" />
        </mxCell>
        <mxCell id="3fbxxqJMh8eJSi5g2v8n-6" value="Tuotteen kuvaus&amp;nbsp;" style="rounded=0;whiteSpace=wrap;html=1;fontSize=12;" parent="1" vertex="1">
          <mxGeometry x="80" y="260" width="120" height="60" as="geometry" />
        </mxCell>
        <mxCell id="3fbxxqJMh8eJSi5g2v8n-11" style="edgeStyle=orthogonalEdgeStyle;rounded=0;orthogonalLoop=1;jettySize=auto;html=1;exitX=0;exitY=0.5;exitDx=0;exitDy=0;entryX=1;entryY=0.5;entryDx=0;entryDy=0;fontSize=12;" parent="1" source="3fbxxqJMh8eJSi5g2v8n-10" target="3fbxxqJMh8eJSi5g2v8n-6" edge="1">
          <mxGeometry relative="1" as="geometry" />
        </mxCell>
        <mxCell id="3fbxxqJMh8eJSi5g2v8n-10" value="&lt;font style=&quot;font-size: 11px&quot;&gt;Toimeksiantajan toiveet robottia varten (lista githubissa)&lt;/font&gt;" style="rounded=1;whiteSpace=wrap;html=1;fontSize=12;" parent="1" vertex="1">
          <mxGeometry x="230" y="260" width="120" height="60" as="geometry" />
        </mxCell>
        <mxCell id="3fbxxqJMh8eJSi5g2v8n-34" style="edgeStyle=orthogonalEdgeStyle;rounded=0;orthogonalLoop=1;jettySize=auto;html=1;exitX=0;exitY=0.5;exitDx=0;exitDy=0;entryX=1;entryY=0.5;entryDx=0;entryDy=0;fontSize=12;" parent="1" source="3fbxxqJMh8eJSi5g2v8n-13" target="3fbxxqJMh8eJSi5g2v8n-10" edge="1">
          <mxGeometry relative="1" as="geometry" />
        </mxCell>
        <mxCell id="3fbxxqJMh8eJSi5g2v8n-13" value="Miten päädyttiin toteuttamaan" style="rounded=1;whiteSpace=wrap;html=1;fontSize=11;" parent="1" vertex="1">
          <mxGeometry x="380" y="260" width="120" height="60" as="geometry" />
        </mxCell>
        <mxCell id="3fbxxqJMh8eJSi5g2v8n-17" style="edgeStyle=orthogonalEdgeStyle;rounded=0;orthogonalLoop=1;jettySize=auto;html=1;exitX=0.5;exitY=1;exitDx=0;exitDy=0;entryX=0.5;entryY=0;entryDx=0;entryDy=0;fontSize=11;" parent="1" source="3fbxxqJMh8eJSi5g2v8n-14" target="8YuRQceYXNouaps_eJ_H-4" edge="1">
          <mxGeometry relative="1" as="geometry" />
        </mxCell>
        <mxCell id="3fbxxqJMh8eJSi5g2v8n-14" value="Lähteisiin pohjautuva tietoperusta" style="rounded=0;whiteSpace=wrap;html=1;fontSize=11;" parent="1" vertex="1">
          <mxGeometry x="80" y="100" width="120" height="60" as="geometry" />
        </mxCell>
        <mxCell id="3fbxxqJMh8eJSi5g2v8n-23" style="edgeStyle=orthogonalEdgeStyle;rounded=0;orthogonalLoop=1;jettySize=auto;html=1;exitX=0;exitY=0;exitDx=0;exitDy=25;exitPerimeter=0;entryX=1.022;entryY=0.644;entryDx=0;entryDy=0;entryPerimeter=0;fontSize=11;" parent="1" source="3fbxxqJMh8eJSi5g2v8n-22" target="3fbxxqJMh8eJSi5g2v8n-14" edge="1">
          <mxGeometry relative="1" as="geometry">
            <Array as="points">
              <mxPoint x="400" y="120" />
              <mxPoint x="300" y="120" />
              <mxPoint x="300" y="139" />
            </Array>
          </mxGeometry>
        </mxCell>
        <mxCell id="3fbxxqJMh8eJSi5g2v8n-22" value="&#xa;&#xa;&lt;span style=&quot;color: rgb(84, 84, 84); font-size: 8px; font-style: normal; font-weight: 400; letter-spacing: normal; text-indent: 0px; text-transform: none; word-spacing: 0px; background-color: rgb(255, 255, 255); display: inline; float: none;&quot;&gt;Tietoperusta pohjautuu aikaisempaan tietoon, joka kehittyy opinnäytetyön tekijän analyysin pohjalta&lt;span style=&quot;font-size: 8px;&quot;&gt;&amp;nbsp;&lt;/span&gt;&lt;/span&gt;&lt;strong style=&quot;box-sizing: border-box; border: 0px; font-size: 8px; font-style: normal; font-weight: bold; margin: 0px; outline: 0px; padding: 0px; vertical-align: baseline; color: rgb(84, 84, 84); letter-spacing: normal; text-indent: 0px; text-transform: none; word-spacing: 0px; background-color: rgb(255, 255, 255);&quot;&gt;synteesiksi&lt;/strong&gt;&lt;span style=&quot;color: rgb(84, 84, 84); font-size: 8px; font-style: normal; font-weight: 400; letter-spacing: normal; text-indent: 0px; text-transform: none; word-spacing: 0px; background-color: rgb(255, 255, 255); display: inline; float: none;&quot;&gt;. Tekijä kokoaa tietoperustaa aikaisempien tutkimusten, kirjallisuuden ja työelämäkokemusten sekä intuition perusteella. Aiempaa tietoa ja aiemmin saatuja tuloksia voidaan esitellä, ja samalla voidaan tarkastella niiden luotettavuutta, yleistettävyyttä ja suhdetta omaan opinnäytetyöhön. Tutkimustietoa käsitellään kriittisesti, vertaillen ja yhteenvetoja tehden. Aiheen kannalta keskeiset käsitteet määritellään teoreettisessa osassa. Muut käsitteet voi määritellä siinä yhteydessä, jossa ne tulevat esille.&lt;/span&gt;&#xa;&#xa;" style="shape=callout;whiteSpace=wrap;html=1;perimeter=calloutPerimeter;fontSize=8;" parent="1" vertex="1">
          <mxGeometry x="400" y="-30" width="160" height="190" as="geometry" />
        </mxCell>
        <mxCell id="3fbxxqJMh8eJSi5g2v8n-25" value="&lt;div style=&quot;text-align: justify&quot;&gt;&lt;span&gt;Lähde: https://oppimateriaalit.jamk.fi/raportointiohje/4-opinnaytetyon-rakenne/4-2-opinnaytetyon-runko-osa/4-2-3-tietoperusta/&lt;/span&gt;&lt;/div&gt;" style="text;html=1;strokeColor=none;fillColor=none;align=left;verticalAlign=middle;whiteSpace=wrap;rounded=0;fontSize=8;" parent="1" vertex="1">
          <mxGeometry x="401" y="-63" width="199" height="30" as="geometry" />
        </mxCell>
        <mxCell id="3fbxxqJMh8eJSi5g2v8n-33" style="edgeStyle=orthogonalEdgeStyle;rounded=0;orthogonalLoop=1;jettySize=auto;html=1;exitX=0.5;exitY=1;exitDx=0;exitDy=0;entryX=0.5;entryY=0;entryDx=0;entryDy=0;fontSize=8;" parent="1" source="3fbxxqJMh8eJSi5g2v8n-31" target="8YuRQceYXNouaps_eJ_H-22" edge="1">
          <mxGeometry relative="1" as="geometry" />
        </mxCell>
        <mxCell id="3fbxxqJMh8eJSi5g2v8n-31" value="&lt;font style=&quot;font-size: 12px&quot;&gt;Pohdinta&lt;/font&gt;" style="rounded=0;whiteSpace=wrap;html=1;fontSize=8;" parent="1" vertex="1">
          <mxGeometry x="80" y="500" width="120" height="60" as="geometry" />
        </mxCell>
      </root>
    </mxGraphModel>
  </diagram>
</mxfile>
